<svg width="18" height="20" viewBox="0 0 18 20" fill="none" xmlns="http://www.w3.org/2000/svg">
<path d="M16.606 6.81868C16.4903 6.90869 14.4463 8.06281 14.4463 10.6291C14.4463 13.5974 17.0472 14.6475 17.125 14.6735C17.113 14.7375 16.7118 16.1116 15.7537 17.5118C14.8994 18.7439 14.0071 19.974 12.6498 19.974C11.2925 19.974 10.9432 19.1839 9.37626 19.1839C7.84927 19.1839 7.30634 20 6.06478 20C4.82323 20 3.95693 18.8599 2.96089 17.4597C1.80716 15.8156 0.875 13.2613 0.875 10.8371C0.875 6.94869 3.39803 4.88649 5.88114 4.88649C7.20054 4.88649 8.30038 5.75458 9.12875 5.75458C9.91719 5.75458 11.1468 4.83448 12.6478 4.83448C13.2167 4.83448 15.2607 4.88649 16.606 6.81868ZM11.9352 3.18832C12.556 2.45024 12.9951 1.42614 12.9951 0.40204C12.9951 0.260026 12.9832 0.116012 12.9572 0C11.9472 0.0380038 10.7456 0.674067 10.021 1.51615C9.45211 2.16422 8.92116 3.18832 8.92116 4.22642C8.92116 4.38244 8.9471 4.53845 8.95908 4.58846C9.02295 4.60046 9.12675 4.61446 9.23055 4.61446C10.1368 4.61446 11.2765 4.0064 11.9352 3.18832Z" fill="black"/>
</svg>
