<svg width="32" height="32" viewBox="0 0 32 32" fill="none" xmlns="http://www.w3.org/2000/svg">
<path d="M24.0004 7.99996C23.1871 7.99996 22.4404 7.53329 22.0671 6.81329L21.1071 4.87996C20.4937 3.66663 18.8937 2.66663 17.5337 2.66663H14.4804C13.1071 2.66663 11.5071 3.66663 10.8937 4.87996L9.93372 6.81329C9.56039 7.53329 8.81372 7.99996 8.00039 7.99996C5.10705 7.99996 2.81372 10.44 3.00039 13.32L3.69372 24.3333C3.85372 27.08 5.33372 29.3333 9.01372 29.3333H22.9871C26.6671 29.3333 28.1337 27.08 28.3071 24.3333L29.0004 13.32C29.1871 10.44 26.8937 7.99996 24.0004 7.99996ZM14.0004 9.66663H18.0004C18.5471 9.66663 19.0004 10.12 19.0004 10.6666C19.0004 11.2133 18.5471 11.6666 18.0004 11.6666H14.0004C13.4537 11.6666 13.0004 11.2133 13.0004 10.6666C13.0004 10.12 13.4537 9.66663 14.0004 9.66663ZM16.0004 24.16C13.5204 24.16 11.4937 22.1466 11.4937 19.6533C11.4937 17.16 13.5071 15.1466 16.0004 15.1466C18.4937 15.1466 20.5071 17.16 20.5071 19.6533C20.5071 22.1466 18.4804 24.16 16.0004 24.16Z" fill="white"/>
</svg>
