<svg width="56" height="56" viewBox="0 0 56 56" fill="none" xmlns="http://www.w3.org/2000/svg">
<rect y="0.00012207" width="56" height="56" rx="28" fill="url(#paint0_radial_372_455)"/>
<path d="M18.2937 10.1898C17.817 10.4526 17.3475 10.5746 16.8852 10.5559C16.4229 10.5372 15.9914 10.3855 15.5907 10.1009C15.1899 9.81628 14.8425 9.40715 14.5483 8.87349L14.5445 8.86665C14.2503 8.333 14.0898 7.82077 14.0631 7.32998C14.0364 6.83919 14.138 6.39511 14.368 5.99773C14.599 5.59682 14.9539 5.26435 15.4328 5.00033C15.8228 4.78535 16.215 4.66876 16.6094 4.65058C17.0061 4.63114 17.3744 4.70317 17.7143 4.86667C18.0542 5.03017 18.3357 5.27644 18.5587 5.60549L18.5832 5.64996L17.5809 6.20251L17.5643 6.18045C17.4282 6.01458 17.2694 5.89101 17.0878 5.80973C16.905 5.72616 16.7124 5.68961 16.51 5.70008C16.3099 5.70929 16.1117 5.76796 15.9156 5.87608C15.6579 6.01814 15.4728 6.21091 15.3602 6.45438C15.2463 6.69556 15.2091 6.97329 15.2485 7.28758C15.289 7.59832 15.4067 7.93044 15.6015 8.28393L15.6053 8.29077C15.7989 8.64198 16.0169 8.91878 16.2594 9.12116C16.504 9.32229 16.7594 9.44024 17.0254 9.47501C17.2913 9.50977 17.5543 9.45549 17.8143 9.31217C18.0127 9.20279 18.17 9.07 18.2861 8.91382C18.4032 8.75409 18.4773 8.58094 18.5082 8.39437C18.5402 8.20426 18.5249 8.01198 18.4623 7.81752L18.4522 7.78296L19.4579 7.22852L19.4805 7.26957C19.6339 7.63405 19.6876 7.99846 19.6416 8.3628C19.5957 8.72714 19.4596 9.06829 19.2334 9.38625C19.006 9.70193 18.6928 9.96978 18.2937 10.1898ZM23.4583 8.33982C22.9146 8.46191 22.4183 8.45058 21.9694 8.30581C21.52 8.15851 21.1388 7.89313 20.8258 7.50967C20.5154 7.12564 20.2937 6.63761 20.1608 6.04558L20.159 6.03795C20.0255 5.44338 20.0186 4.90714 20.1381 4.42924C20.2597 3.94822 20.4924 3.54633 20.8363 3.22356C21.1802 2.9008 21.6214 2.67894 22.1601 2.55799C22.7013 2.43647 23.1951 2.44838 23.6414 2.59371C24.0903 2.73848 24.4712 3.00259 24.7842 3.38605C25.0971 3.76951 25.3201 4.25725 25.453 4.84928L25.4547 4.85691C25.5877 5.44894 25.5946 5.98518 25.4756 6.46562C25.3592 6.9455 25.1293 7.34809 24.786 7.6734C24.4421 7.99616 23.9995 8.2183 23.4583 8.33982ZM23.2392 7.36411C23.5365 7.29736 23.778 7.1604 23.9637 6.95323C24.1494 6.74606 24.2697 6.48551 24.3247 6.17157C24.3822 5.85707 24.3676 5.5067 24.2808 5.12049L24.2791 5.11286C24.1918 4.7241 24.0553 4.40113 23.8694 4.14393C23.6855 3.88362 23.4656 3.70079 23.2098 3.59543C22.9533 3.48753 22.6765 3.46695 22.3792 3.5337C22.0819 3.60045 21.8404 3.73741 21.6547 3.94458C21.4685 4.14921 21.3466 4.40878 21.2891 4.72329C21.231 5.03525 21.2457 5.38562 21.3329 5.77438L21.3347 5.782C21.4214 6.16822 21.5567 6.49148 21.7406 6.75179C21.927 7.01152 22.1472 7.19563 22.401 7.3041C22.6575 7.412 22.9369 7.43201 23.2392 7.36411ZM26.7655 7.67013L27.3284 2.0616L28.6732 2.19658L29.812 6.45662L29.882 6.46364L31.8409 2.51454L33.1857 2.64953L32.6227 8.25806L31.5772 8.15312L31.9603 4.33636L31.3812 4.27823L32.6648 2.75428L30.0614 8.00096L29.3268 7.92723L27.822 2.26817L28.7732 4.01645L28.1941 3.95832L27.811 7.77508L26.7655 7.67013ZM33.5224 8.49935L35.3041 3.15163L36.4233 3.52452L34.6416 8.87224L33.5224 8.49935ZM35.5011 9.30212L38.3124 4.41652L39.1656 4.90747L39.6823 9.82877L39.1764 9.05542L39.6842 9.34765L41.4747 6.23617L42.4531 6.79921L39.6418 11.6848L38.7954 11.1978L38.2797 6.25902L38.789 7.03432L38.2778 6.74013L36.4796 9.86516L35.5011 9.30212ZM41.9357 14.1831C41.6459 13.8802 41.4346 13.5615 41.302 13.2271C41.1712 12.8908 41.1171 12.5498 41.1394 12.204C41.1654 11.8583 41.2669 11.5143 41.4439 11.1719C41.6228 10.8277 41.8778 10.4972 42.2089 10.1803L42.2146 10.1749C42.6511 9.75722 43.1039 9.47525 43.5732 9.32902C44.0442 9.18098 44.505 9.16902 44.9553 9.29313C45.4076 9.41544 45.8219 9.6732 46.1982 10.0664C46.506 10.3882 46.7241 10.731 46.8524 11.0948C46.9807 11.4586 47.0188 11.8186 46.9668 12.1748C46.9166 12.5329 46.7749 12.8613 46.5417 13.1601L46.5189 13.1927L45.7087 12.346L45.7315 12.3134C45.8807 12.0625 45.9325 11.8002 45.887 11.5266C45.8414 11.253 45.7043 10.9968 45.4757 10.7578C45.2668 10.5396 45.0285 10.4054 44.7607 10.3553C44.4965 10.3053 44.2177 10.3378 43.9242 10.4529C43.6325 10.5662 43.3427 10.7606 43.0549 11.0361L43.0492 11.0415C42.8291 11.2521 42.6549 11.4675 42.5266 11.6875C42.4003 11.9058 42.3209 12.1223 42.2886 12.3371C42.2562 12.5519 42.2719 12.7585 42.3357 12.957C42.3995 13.1555 42.5115 13.3384 42.6717 13.5059C42.85 13.6921 43.0433 13.8226 43.2516 13.8971C43.4599 13.9717 43.6668 13.9882 43.8721 13.9467C44.0775 13.9052 44.2685 13.8053 44.4451 13.6471L44.524 13.577L43.6814 12.6965L44.3023 12.1023L45.9389 13.8126L45.4224 14.3068C45.1534 14.5643 44.8711 14.7552 44.5755 14.8794C44.2799 15.0037 43.9793 15.0606 43.6738 15.0502C43.3702 15.038 43.0698 14.9596 42.7728 14.8149C42.4794 14.6703 42.2004 14.4597 41.9357 14.1831ZM45.6531 19.8275C45.4723 19.4177 45.377 19.0342 45.3674 18.677C45.3577 18.3197 45.4265 18.0047 45.5737 17.732C45.7243 17.4605 45.9473 17.2468 46.2428 17.0908L46.2984 17.0619L46.7574 18.1019L46.7233 18.1212C46.6009 18.1923 46.5109 18.2947 46.4532 18.4283C46.3989 18.5633 46.3785 18.7203 46.3921 18.8993C46.4056 19.0784 46.4566 19.268 46.5449 19.4681C46.6301 19.6611 46.7333 19.8176 46.8546 19.9377C46.9759 20.0578 47.1045 20.1362 47.2403 20.1731C47.3796 20.2112 47.5147 20.2014 47.6458 20.1436L47.6493 20.142C47.8185 20.0673 47.9238 19.9383 47.9652 19.7549C48.0077 19.5739 47.9914 19.3079 47.9161 18.9568L47.7872 18.3647C47.6602 17.7803 47.6681 17.3114 47.811 16.958C47.9539 16.6045 48.2207 16.3416 48.6114 16.1691L48.615 16.1676C48.9343 16.0267 49.2503 15.9882 49.5632 16.0522C49.8761 16.1162 50.1633 16.267 50.4247 16.5046C50.6885 16.7411 50.9045 17.05 51.0728 17.4312C51.2494 17.8314 51.3354 18.2034 51.3305 18.5471C51.3291 18.8922 51.251 19.1957 51.0961 19.4576C50.9437 19.7184 50.7281 19.9232 50.4493 20.0719L50.4044 20.0959L49.9564 19.081L49.9962 19.055C50.1106 18.9788 50.1958 18.8786 50.252 18.7542C50.3091 18.6322 50.3334 18.4905 50.3248 18.3292C50.3197 18.1692 50.2772 17.9987 50.1972 17.8176C50.1194 17.6413 50.0249 17.498 49.9136 17.3877C49.8023 17.2775 49.6827 17.2064 49.5548 17.1746C49.4293 17.1418 49.3022 17.1538 49.1735 17.2105L49.17 17.2121C49.0032 17.2857 48.8957 17.4129 48.8473 17.5936C48.8024 17.7757 48.8158 18.0317 48.8874 18.3616L49.0179 18.9572C49.105 19.3544 49.1358 19.6951 49.1105 19.9796C49.0862 20.2664 49.003 20.5067 48.8608 20.7004C48.7185 20.8941 48.5128 21.0504 48.2436 21.1692L48.24 21.1708C47.8993 21.3211 47.5666 21.367 47.2418 21.3082C46.9204 21.2508 46.6217 21.0965 46.3458 20.8454C46.0733 20.5957 45.8424 20.2563 45.6531 19.8275ZM47.0081 25.0028C46.9301 24.451 46.9813 23.9572 47.1616 23.5214C47.3445 23.0853 47.6397 22.7266 48.0471 22.4455C48.4548 22.1669 48.9591 21.9852 49.5598 21.9002L49.5676 21.8991C50.171 21.8138 50.706 21.85 51.1728 22.0075C51.6425 22.1673 52.0244 22.4316 52.3185 22.8003C52.6126 23.169 52.7982 23.6267 52.8755 24.1733C52.9532 24.7225 52.9016 25.2137 52.7209 25.647C52.5406 26.0827 52.2467 26.4412 51.8393 26.7224C51.432 27.0035 50.9279 27.1865 50.3271 27.2715L50.3194 27.2726C49.7186 27.3575 49.1835 27.3214 48.7142 27.1642C48.2452 27.0096 47.8624 26.7481 47.5657 26.3797C47.2716 26.011 47.0857 25.552 47.0081 25.0028ZM47.9982 24.8628C48.0409 25.1645 48.158 25.4162 48.3496 25.618C48.5412 25.8197 48.7912 25.9606 49.0997 26.0405C49.4086 26.1231 49.759 26.1367 50.1509 26.0813L50.1587 26.0802C50.5532 26.0244 50.8861 25.9142 51.1574 25.7496C51.4316 25.5873 51.6315 25.3828 51.7571 25.1362C51.8853 24.8893 51.928 24.615 51.8854 24.3133C51.8427 24.0116 51.7256 23.7599 51.534 23.5582C51.345 23.3561 51.0961 23.2137 50.7872 23.1312C50.4809 23.0482 50.1305 23.0346 49.736 23.0904L49.7283 23.0915C49.3363 23.1469 49.0032 23.2558 48.729 23.4182C48.4551 23.5832 48.2539 23.7878 48.1254 24.0322C47.9973 24.2791 47.9549 24.556 47.9982 24.8628ZM46.9117 30.7726C46.9964 30.2218 47.188 29.7638 47.4865 29.3987C47.7876 29.0339 48.1738 28.7758 48.645 28.6243C49.1158 28.4753 49.651 28.447 50.2508 28.5391L50.2585 28.5403C50.8608 28.6329 51.3626 28.822 51.764 29.1077C52.1675 29.3963 52.4568 29.7596 52.6319 30.1975C52.807 30.6354 52.8526 31.1272 52.7687 31.6729C52.6845 32.2212 52.4933 32.6766 52.1951 33.0391C51.8966 33.4043 51.5117 33.6626 51.0405 33.8141C50.5693 33.9656 50.0339 33.9953 49.4341 33.9031L49.4264 33.9019C48.8267 33.8097 48.3249 33.6206 47.9209 33.3346C47.5166 33.0511 47.2256 32.6902 47.0479 32.2519C46.8729 31.814 46.8275 31.3209 46.9117 30.7726ZM47.9001 30.9245C47.8538 31.2257 47.8933 31.5005 48.0184 31.749C48.1436 31.9974 48.3423 32.2045 48.6146 32.3702C48.8864 32.5384 49.218 32.6526 49.6092 32.7128L49.6169 32.714C50.0108 32.7745 50.3613 32.7651 50.6686 32.6859C50.978 32.6096 51.2285 32.4716 51.4199 32.2718C51.6139 32.0724 51.734 31.8221 51.7803 31.521C51.8266 31.2198 51.7872 30.945 51.662 30.6966C51.5394 30.4485 51.3422 30.2403 51.0703 30.0721C50.8011 29.9042 50.4695 29.79 50.0757 29.7295L50.068 29.7283C49.6767 29.6682 49.3264 29.6762 49.0169 29.7525C48.7071 29.8313 48.4554 29.9692 48.2618 30.166C48.0678 30.3654 47.9472 30.6182 47.9001 30.9245ZM46.3446 34.1081L51.4278 36.544L51.0024 37.4317L46.1339 38.3171L46.8671 37.7544L46.6138 38.2828L49.8512 39.8341L49.3633 40.8522L44.2801 38.4163L44.7021 37.5357L49.5881 36.65L48.8533 37.2162L49.1082 36.6842L45.8568 35.1262L46.3446 34.1081ZM42.7751 43.7175L42.7695 43.7121C42.6301 43.579 42.5353 43.4256 42.4852 43.2518C42.4369 43.0798 42.4338 42.9058 42.4757 42.7298C42.5158 42.5558 42.6024 42.399 42.7354 42.2596L42.7408 42.2539C42.8721 42.1164 43.0246 42.0226 43.1984 41.9724C43.3704 41.9242 43.5443 41.9192 43.7202 41.9575C43.8962 41.9994 44.0539 42.0869 44.1933 42.2199L44.199 42.2253C44.3365 42.3565 44.4303 42.509 44.4805 42.6828C44.5288 42.8585 44.5329 43.0334 44.4928 43.2075C44.4508 43.3835 44.3643 43.5402 44.233 43.6778L44.2276 43.6834C44.0946 43.8228 43.9421 43.9167 43.7701 43.9649C43.5962 44.015 43.4214 44.0191 43.2454 43.9772C43.0694 43.9353 42.9127 43.8487 42.7751 43.7175ZM36.7251 44.9113C37.2018 44.6485 37.6712 44.5264 38.1335 44.5451C38.5959 44.5638 39.0274 44.7155 39.4281 45.0001C39.8289 45.2847 40.1764 45.6938 40.4706 46.2274L40.4744 46.2343C40.7686 46.7679 40.9291 47.2801 40.9558 47.7709C40.9825 48.2617 40.8809 48.7058 40.651 49.1032C40.42 49.5041 40.0651 49.8366 39.5862 50.1006C39.1962 50.3156 38.804 50.4322 38.4096 50.4504C38.013 50.4699 37.6447 50.3979 37.3047 50.2344C36.9648 50.0709 36.6833 49.8246 36.4603 49.4956L36.4358 49.4511L37.4381 48.8985L37.4547 48.9206C37.5907 49.0865 37.7496 49.21 37.9312 49.2913C38.114 49.3749 38.3066 49.4114 38.509 49.4009C38.7091 49.3917 38.9072 49.333 39.1034 49.2249C39.3611 49.0828 39.5462 48.89 39.6588 48.6466C39.7726 48.4054 39.8098 48.1276 39.7704 47.8134C39.7299 47.5026 39.6122 47.1705 39.4173 46.817L39.4136 46.8102C39.2199 46.459 39.0019 46.1822 38.7595 45.9798C38.5148 45.7787 38.2594 45.6608 37.9935 45.626C37.7275 45.5913 37.4645 45.6455 37.2045 45.7889C37.0061 45.8983 36.8489 46.0311 36.7328 46.1873C36.6156 46.347 36.5416 46.5201 36.5107 46.7067C36.4787 46.8968 36.494 47.0891 36.5566 47.2836L36.5667 47.3181L35.561 47.8726L35.5384 47.8316C35.385 47.4671 35.3313 47.1027 35.3772 46.7383C35.4232 46.374 35.5592 46.0328 35.7854 45.7149C36.0128 45.3992 36.326 45.1313 36.7251 44.9113ZM31.5612 46.7458C32.1055 46.6261 32.6018 46.6396 33.05 46.7864C33.4988 46.9357 33.8788 47.2028 34.19 47.5877C34.4987 47.9731 34.7182 48.4621 34.8485 49.0547L34.8502 49.0623C34.981 49.6575 34.9856 50.1938 34.8639 50.6711C34.7402 51.1516 34.5057 51.5524 34.1604 51.8737C33.8151 52.1949 33.3728 52.4148 32.8336 52.5333C32.2919 52.6524 31.7981 52.6383 31.3525 52.491C30.9042 52.3442 30.5245 52.0784 30.2133 51.6936C29.902 51.3087 29.6812 50.82 29.551 50.2274L29.5493 50.2197C29.419 49.6271 29.4144 49.0908 29.5356 48.6109C29.6541 48.1316 29.8858 47.73 30.2306 47.4062C30.5759 47.085 31.0195 46.8649 31.5612 46.7458ZM31.7759 47.7224C31.4784 47.7879 31.2363 47.9237 31.0497 48.1301C30.863 48.3364 30.7416 48.5964 30.6852 48.9101C30.6263 49.2244 30.6394 49.5748 30.7244 49.9614L30.726 49.969C30.8116 50.3582 30.9467 50.6817 31.1314 50.9398C31.3141 51.2009 31.5332 51.3847 31.7886 51.4912C32.0445 51.6003 32.3213 51.6221 32.6189 51.5566C32.9165 51.4912 33.1586 51.3553 33.3452 51.149C33.5323 50.9452 33.6554 50.6862 33.7143 50.3719C33.7737 50.0602 33.7607 49.7098 33.6751 49.3207L33.6735 49.313C33.5885 48.9264 33.4546 48.6026 33.2719 48.3414C33.0866 48.0809 32.8673 47.8958 32.6139 47.7862C32.3579 47.6771 32.0786 47.6559 31.7759 47.7224ZM28.253 47.4027L27.6858 53.0109L26.3411 52.8749L25.2055 48.614L25.1355 48.6069L23.1737 52.5545L21.829 52.4186L22.3961 46.8104L23.4416 46.9162L23.0556 50.7326L23.6347 50.7912L22.3499 52.3142L24.9573 47.0695L25.6918 47.1437L27.1924 52.8039L26.2425 51.0549L26.8216 51.1135L27.2075 47.297L28.253 47.4027ZM21.499 46.5673L19.7022 51.91L18.5841 51.5339L20.3809 46.1913L21.499 46.5673ZM19.5226 45.7588L16.6961 50.6356L15.8445 50.142L15.343 45.2192L15.8465 45.9941L15.3396 45.7003L13.5395 48.8062L12.5628 48.2401L15.3892 43.3632L16.2342 43.8529L16.7345 48.7932L16.2276 48.0164L16.738 48.3121L18.5459 45.1927L19.5226 45.7588ZM13.1027 40.8576C13.3916 41.1614 13.6019 41.4808 13.7335 41.8156C13.8632 42.1523 13.9163 42.4935 13.8929 42.8392C13.8658 43.1848 13.7632 43.5285 13.5852 43.8703C13.4053 44.214 13.1493 44.5437 12.8171 44.8596L12.8115 44.865C12.3737 45.2813 11.92 45.5619 11.4503 45.7067C10.9787 45.8533 10.518 45.8638 10.068 45.7383C9.61613 45.6146 9.20265 45.3556 8.82757 44.9612C8.52068 44.6385 8.30365 44.295 8.17649 43.9308C8.04932 43.5666 8.0123 43.2065 8.06544 42.8504C8.11679 42.4925 8.25949 42.1646 8.49353 41.8665L8.51645 41.8339L9.32405 42.6831L9.30113 42.7157C9.15117 42.9661 9.09854 43.2282 9.14325 43.5019C9.18795 43.7757 9.32427 44.0324 9.55219 44.272C9.76037 44.4909 9.99829 44.6258 10.2659 44.6767C10.5299 44.7276 10.8089 44.6959 11.1028 44.5817C11.3948 44.4693 11.6851 44.2758 11.9739 44.0012L11.9795 43.9958C12.2003 43.7859 12.3751 43.5711 12.5041 43.3514C12.6311 43.1336 12.7111 42.9173 12.7442 42.7026C12.7772 42.4879 12.7621 42.2812 12.6989 42.0825C12.6358 41.8839 12.5243 41.7006 12.3646 41.5326C12.1869 41.3458 11.994 41.2148 11.7859 41.1396C11.5778 41.0643 11.371 41.0472 11.1655 41.0881C10.9601 41.129 10.7688 41.2282 10.5917 41.3859L10.5125 41.4557L11.3524 42.3389L10.7297 42.9311L9.09838 41.2158L9.61637 40.7232C9.88622 40.4665 10.1691 40.2765 10.4651 40.1532C10.7611 40.0298 11.0618 39.9738 11.3673 39.9852C11.6709 39.9983 11.971 40.0777 12.2676 40.2233C12.5605 40.3688 12.8389 40.5802 13.1027 40.8576ZM9.40427 35.2005C9.58365 35.611 9.67754 35.9948 9.68591 36.3521C9.69428 36.7094 9.62439 37.0241 9.47622 37.2964C9.32463 37.5673 9.10081 37.7802 8.80476 37.9352L8.74906 37.9638L8.2938 36.9222L8.32803 36.903C8.45063 36.8323 8.54103 36.7303 8.59923 36.5969C8.654 36.4621 8.67493 36.3051 8.66202 36.1261C8.64911 35.947 8.59885 35.7572 8.51124 35.5568C8.42676 35.3635 8.32408 35.2066 8.20319 35.086C8.0823 34.9655 7.95402 34.8866 7.81834 34.8493C7.67923 34.8106 7.54405 34.8199 7.41281 34.8773L7.40923 34.8789C7.23981 34.9529 7.13404 35.0816 7.09193 35.2648C7.04877 35.4457 7.06419 35.7118 7.13817 36.0631L7.26501 36.6557C7.38991 37.2405 7.38028 37.7094 7.23611 38.0623C7.09194 38.4152 6.82419 38.6772 6.43285 38.8482L6.42927 38.8498C6.10952 38.9896 5.79331 39.0269 5.48064 38.9618C5.16797 38.8966 4.88136 38.7448 4.62079 38.5063C4.35783 38.2688 4.14292 37.9592 3.97605 37.5774C3.80083 37.1765 3.71626 36.8042 3.72235 36.4605C3.72501 36.1154 3.80422 35.8123 3.95998 35.5509C4.11337 35.2906 4.32973 35.0866 4.60907 34.9389L4.65404 34.915L5.09834 35.9316L5.05851 35.9575C4.94382 36.0332 4.85819 36.1331 4.80163 36.2573C4.74403 36.3791 4.71923 36.5207 4.72723 36.6821C4.73179 36.8421 4.77371 37.0127 4.85297 37.1941C4.93015 37.3707 5.02419 37.5143 5.13509 37.625C5.246 37.7357 5.36534 37.8071 5.49312 37.8394C5.61851 37.8727 5.74563 37.8612 5.87449 37.8048L5.87807 37.8033C6.0451 37.7303 6.1531 37.6035 6.20208 37.4229C6.24762 37.241 6.23519 36.985 6.16477 36.6548L6.03637 36.0587C5.95077 35.6613 5.92114 35.3204 5.94748 35.036C5.97279 34.7493 6.0569 34.5093 6.19981 34.3161C6.34273 34.1229 6.54901 33.9674 6.81865 33.8496L6.82223 33.848C7.16346 33.6988 7.49637 33.6542 7.82097 33.7141C8.14214 33.7727 8.44024 33.928 8.71527 34.1801C8.98687 34.4309 9.21653 34.771 9.40427 35.2005ZM8.06756 30.0207C8.14367 30.5728 8.0908 31.0664 7.90895 31.5016C7.72451 31.9371 7.42813 32.2947 7.0198 32.5745C6.61112 32.8516 6.10623 33.0316 5.50515 33.1145L5.49741 33.1156C4.89374 33.1988 4.3588 33.1608 3.89259 33.0016C3.42344 32.8402 3.04246 32.5747 2.74964 32.205C2.45682 31.8352 2.27271 31.3769 2.19731 30.83C2.12155 30.2805 2.17478 29.7895 2.35699 29.3569C2.53884 28.9217 2.83394 28.5643 3.24226 28.2845C3.65059 28.0048 4.1553 27.8235 4.75639 27.7406L4.76412 27.7396C5.36521 27.6567 5.90015 27.6947 6.36894 27.8535C6.83738 28.0097 7.21929 28.2725 7.5147 28.6419C7.80752 29.0116 7.99181 29.4712 8.06756 30.0207ZM7.07693 30.1573C7.03532 29.8554 6.91907 29.6033 6.72818 29.4009C6.53729 29.1986 6.28773 29.0568 5.9795 28.9758C5.67092 28.8921 5.32056 28.8773 4.92844 28.9314L4.9207 28.9325C4.526 28.9869 4.19271 29.0959 3.92085 29.2596C3.64605 29.421 3.44544 29.6248 3.31902 29.871C3.19002 30.1174 3.14632 30.3916 3.18794 30.6934C3.22955 30.9953 3.3458 31.2474 3.53669 31.4498C3.72499 31.6525 3.97344 31.7957 4.28203 31.8793C4.58803 31.9633 4.93839 31.9781 5.33309 31.9237L5.34083 31.9226C5.73295 31.8686 6.06642 31.7608 6.34121 31.5994C6.61565 31.4354 6.81755 31.2314 6.94691 30.9875C7.07592 30.741 7.11926 30.4643 7.07693 30.1573ZM8.19794 24.2552C8.10888 24.8053 7.91363 25.2617 7.6122 25.6245C7.3082 25.9868 6.92001 26.2418 6.44761 26.3896C5.97563 26.5348 5.44016 26.5589 4.84119 26.4619L4.83347 26.4607C4.23193 26.3633 3.73163 26.1702 3.33255 25.8813C2.93133 25.5895 2.64493 25.2239 2.47335 24.7846C2.30177 24.3453 2.2601 23.8531 2.34833 23.3081C2.43698 22.7606 2.63181 22.3067 2.93282 21.9466C3.23425 21.5838 3.62116 21.3286 4.09355 21.1808C4.56595 21.0331 5.10163 21.0077 5.7006 21.1046L5.70832 21.1059C6.30729 21.2029 6.80759 21.396 7.20924 21.6852C7.61129 21.9719 7.8994 22.3351 8.07355 22.7749C8.24513 23.2142 8.28659 23.7076 8.19794 24.2552ZM7.2108 24.0954C7.25949 23.7946 7.22225 23.5195 7.09908 23.27C6.9759 23.0206 6.77885 22.8119 6.50792 22.6441C6.23741 22.4736 5.90678 22.3568 5.51604 22.2935L5.50832 22.2923C5.11501 22.2286 4.7644 22.2352 4.45651 22.3119C4.14646 22.3857 3.89492 22.5218 3.7019 22.72C3.50631 22.9179 3.38417 23.1672 3.33547 23.468C3.28678 23.7687 3.32402 24.0438 3.4472 24.2933C3.5678 24.5423 3.76336 24.7521 4.03387 24.9225C4.30181 25.0925 4.63244 25.2093 5.02575 25.273L5.03347 25.2743C5.42421 25.3375 5.77461 25.3323 6.08466 25.2585C6.39512 25.1821 6.64794 25.0463 6.84312 24.851C7.03871 24.6532 7.16127 24.4013 7.2108 24.0954ZM8.7849 20.9256L3.69694 18.4996L4.1206 17.6111L8.98736 16.7162L8.25535 17.2803L8.50753 16.7514L5.26718 15.2064L5.75305 14.1874L10.841 16.6133L10.4207 17.4948L5.53647 18.39L6.27017 17.8224L6.0163 18.3548L9.27076 19.9066L8.7849 20.9256ZM12.4016 11.3274L12.4072 11.3328C12.5448 11.4678 12.6374 11.6225 12.6852 11.7969C12.7311 11.9696 12.7319 12.1436 12.6875 12.319C12.645 12.4925 12.5563 12.6481 12.4214 12.7856L12.4159 12.7912C12.2828 12.927 12.129 13.0187 11.9546 13.0664C11.7819 13.1123 11.6079 13.1149 11.4326 13.0743C11.2572 13.03 11.1007 12.9404 10.9631 12.8054L10.9575 12.8C10.8218 12.6669 10.7301 12.5131 10.6823 12.3386C10.6364 12.1623 10.6347 11.9873 10.6772 11.8138C10.7215 11.6384 10.8102 11.4829 10.9433 11.3471L10.9488 11.3416C11.0837 11.204 11.2375 11.1122 11.4102 11.0664C11.5846 11.0186 11.7596 11.0169 11.9349 11.0612C12.1103 11.1055 12.2659 11.1943 12.4016 11.3274Z" fill="white"/>
<g clip-path="url(#clip0_372_455)">
<path d="M16.9487 33.7386L21.2101 35.7841L20.2557 36.665C19.4345 37.423 18.4003 37.9105 17.293 38.0615L15.9769 38.241C15.6885 38.2803 15.4867 37.9636 15.644 37.7189L16.0336 37.1129C16.5224 36.3526 16.8145 35.4828 16.8838 34.5816L16.9487 33.7386Z" fill="white"/>
<path d="M38.4263 37.1477L34.1649 39.1932L35.1193 40.0741C35.9405 40.8321 36.9747 41.3196 38.082 41.4706L39.3981 41.6501C39.6865 41.6894 39.8883 41.3727 39.731 41.1279L39.3414 40.5219C38.8526 39.7616 38.5605 38.8918 38.4912 37.9907L38.4263 37.1477Z" fill="white"/>
<path d="M34.3584 19.2649C39.1553 20.4538 42.6875 24.4983 42.6875 29.3069C42.6875 35.0494 37.6507 39.7043 31.4375 39.7043C28.911 39.7043 26.5791 38.9346 24.7012 37.635C31.2218 37.2686 36.5506 32.2462 36.5508 25.8977C36.5507 23.4185 35.7374 21.1417 34.3584 19.2649ZM25.0879 36.2424C24.7097 36.2779 24.3259 36.2961 23.9375 36.2961C23.7433 36.2961 23.5502 36.2915 23.3584 36.2825C23.2639 36.278 23.17 36.2688 23.0762 36.262V36.261C23.3606 36.2809 23.6476 36.2952 23.9375 36.2952C24.3259 36.2952 24.7096 36.277 25.0879 36.2415V36.2424Z" fill="white"/>
<ellipse cx="23.9375" cy="25.8977" rx="11.25" ry="10.3977" fill="white"/>
</g>
<defs>
<radialGradient id="paint0_radial_372_455" cx="0" cy="0" r="1" gradientUnits="userSpaceOnUse" gradientTransform="translate(6.53119 12.523) rotate(27.8719) scale(68.3466 68.3302)">
<stop stop-color="#ED1980"/>
<stop offset="1" stop-color="#FE831A"/>
</radialGradient>
<clipPath id="clip0_372_455">
<rect width="30" height="26.25" fill="white" transform="translate(12.6875 15.5)"/>
</clipPath>
</defs>
</svg>
