<svg width="18" height="17" viewBox="0 0 18 17" fill="none" xmlns="http://www.w3.org/2000/svg">
<path d="M8.99219 16.4375C7.8776 16.4375 6.83333 16.2266 5.85938 15.8047C4.88542 15.388 4.02865 14.8099 3.28906 14.0703C2.54948 13.3307 1.96875 12.474 1.54688 11.5C1.13021 10.526 0.921875 9.48177 0.921875 8.36719C0.921875 7.2526 1.13021 6.20833 1.54688 5.23438C1.96875 4.25521 2.54948 3.39844 3.28906 2.66406C4.02865 1.92448 4.88542 1.34635 5.85938 0.929688C6.83333 0.507812 7.8776 0.296875 8.99219 0.296875C10.1068 0.296875 11.151 0.507812 12.125 0.929688C13.1042 1.34635 13.9635 1.92448 14.7031 2.66406C15.4427 3.39844 16.0208 4.25521 16.4375 5.23438C16.8594 6.20833 17.0703 7.2526 17.0703 8.36719C17.0703 9.48177 16.8594 10.526 16.4375 11.5C16.0208 12.474 15.4427 13.3307 14.7031 14.0703C13.9635 14.8099 13.1042 15.388 12.125 15.8047C11.151 16.2266 10.1068 16.4375 8.99219 16.4375ZM6.49219 11.8594L11.6719 6.67969L10.6328 5.64062L5.46094 10.8125L5.00781 11.8984C4.95573 12.0182 4.97396 12.1224 5.0625 12.2109C5.15625 12.2943 5.25781 12.3151 5.36719 12.2734L6.49219 11.8594ZM12.1641 6.19531L12.7578 5.60938C12.8984 5.46875 12.9714 5.32031 12.9766 5.16406C12.9818 5.0026 12.9193 4.85677 12.7891 4.72656L12.5938 4.53125C12.4583 4.40104 12.3125 4.34115 12.1562 4.35156C12 4.35677 11.8542 4.42708 11.7188 4.5625L11.125 5.15625L12.1641 6.19531Z" fill="white"/>
</svg>
