<svg width="76" height="76" viewBox="0 0 76 76" fill="none" xmlns="http://www.w3.org/2000/svg">
<g filter="url(#filter0_d_146_2134)">
<mask id="mask0_146_2134" style="mask-type:alpha" maskUnits="userSpaceOnUse" x="9" y="9" width="58" height="58">
<rect x="9.5" y="9.5" width="57" height="57" fill="#D9D9D9" stroke="#FF6900"/>
</mask>
<g mask="url(#mask0_146_2134)">
<path d="M37.9998 18.8334C41.669 18.8334 44.8192 20.119 47.4216 22.681C50.026 25.245 51.3337 28.3781 51.3337 32.0502C51.3337 35.3136 50.3129 38.1973 48.2742 40.6801C46.3228 43.0564 43.8363 44.5563 40.8337 45.1771V49.1664H42.6667C43.4536 49.1664 44.1368 49.4384 44.6824 49.9838C45.228 50.5294 45.4998 51.2133 45.4998 52.0004C45.4997 52.7873 45.2279 53.4704 44.6824 54.016C44.1368 54.5615 43.4537 54.8334 42.6667 54.8334H40.8337V56.6664C40.8337 57.4534 40.562 58.1374 40.0164 58.683C39.4707 59.2286 38.7868 59.5004 37.9998 59.5004C37.2129 59.5003 36.5296 59.2284 35.9841 58.683C35.4385 58.1374 35.1667 57.4534 35.1667 56.6664V54.8334H33.3337C32.5467 54.8334 31.8628 54.5616 31.3171 54.016C30.7717 53.4705 30.4998 52.7872 30.4998 52.0004C30.4998 51.2133 30.7715 50.5294 31.3171 49.9838C31.8628 49.4381 32.5467 49.1664 33.3337 49.1664H35.1667V45.1771C32.1641 44.5564 29.6777 43.0564 27.7263 40.6801C25.6876 38.1973 24.6668 35.3136 24.6667 32.0502C24.6667 28.3781 25.9745 25.245 28.5789 22.681C31.1812 20.1192 34.3307 18.8334 37.9998 18.8334ZM37.9998 24.5004C35.8769 24.5004 34.0794 25.2449 32.5789 26.7455C31.0783 28.2461 30.3338 30.0435 30.3337 32.1664C30.3337 34.2894 31.0782 36.0876 32.5789 37.5883C34.0794 39.0887 35.877 39.8333 37.9998 39.8334C40.1227 39.8334 41.921 39.0889 43.4216 37.5883C44.9223 36.0876 45.6667 34.2894 45.6667 32.1664C45.6667 30.0436 44.9221 28.246 43.4216 26.7455C41.921 25.2448 40.1227 24.5004 37.9998 24.5004Z" fill="#FF6900" stroke="#D85900"/>
</g>
</g>
<defs>
<filter id="filter0_d_146_2134" x="24.1667" y="18.3334" width="27.6667" height="42.6666" filterUnits="userSpaceOnUse" color-interpolation-filters="sRGB">
<feFlood flood-opacity="0" result="BackgroundImageFix"/>
<feColorMatrix in="SourceAlpha" type="matrix" values="0 0 0 0 0 0 0 0 0 0 0 0 0 0 0 0 0 0 127 0" result="hardAlpha"/>
<feOffset dy="1"/>
<feComposite in2="hardAlpha" operator="out"/>
<feColorMatrix type="matrix" values="0 0 0 0 0.695413 0 0 0 0 0.286346 0 0 0 0 0 0 0 0 1 0"/>
<feBlend mode="normal" in2="BackgroundImageFix" result="effect1_dropShadow_146_2134"/>
<feBlend mode="normal" in="SourceGraphic" in2="effect1_dropShadow_146_2134" result="shape"/>
</filter>
</defs>
</svg>
