<svg width="20" height="20" viewBox="0 0 20 20" fill="none" xmlns="http://www.w3.org/2000/svg">
<g clip-path="url(#clip0_146_1978)">
<mask id="mask0_146_1978" style="mask-type:luminance" maskUnits="userSpaceOnUse" x="0" y="0" width="20" height="20">
<path d="M19.8079 8.14476H10.213V11.9894H15.7263C15.6377 12.5336 15.4387 13.0688 15.1472 13.5569C14.8133 14.1161 14.4006 14.5418 13.9775 14.866C12.7101 15.8372 11.2325 16.0358 10.2063 16.0358C7.61409 16.0358 5.39919 14.3604 4.54176 12.0838C4.50716 12.0012 4.48418 11.9159 4.4562 11.8315C4.26673 11.2521 4.1632 10.6384 4.1632 10.0006C4.1632 9.33685 4.27531 8.70145 4.47972 8.10134C5.28599 5.73451 7.55082 3.96672 10.2082 3.96672C10.7427 3.96672 11.2574 4.03034 11.7455 4.15724C12.861 4.44725 13.6501 5.01843 14.1336 5.47023L17.0511 2.61313C15.2764 0.985972 12.9629 2.46015e-09 10.2033 2.46015e-09C7.99721 -4.74827e-05 5.96042 0.687318 4.29133 1.84899C2.93776 2.79107 1.82764 4.0524 1.07844 5.5173C0.381576 6.87555 0 8.38075 0 9.99913C0 11.6176 0.382159 13.1384 1.07902 14.4841V14.4932C1.81508 15.9218 2.89146 17.1519 4.19967 18.0897C5.34254 18.9089 7.39181 20 10.2033 20C11.8202 20 13.2531 19.7085 14.5169 19.1622C15.4285 18.7681 16.2363 18.2541 16.9676 17.5935C17.9339 16.7206 18.6906 15.6409 19.2072 14.3987C19.7237 13.1565 20 11.7518 20 10.2289C20 9.51963 19.9288 8.79934 19.8079 8.14469V8.14476Z" fill="white"/>
</mask>
<g mask="url(#mask0_146_1978)">
<g filter="url(#filter0_f_146_1978)">
<path d="M-0.147156 10.067C-0.13655 11.6599 0.317344 13.3034 1.00439 14.6302V14.6393C1.50081 15.6028 2.17928 16.3639 2.95204 17.118L7.61933 15.415C6.73631 14.9665 6.60157 14.6916 5.96858 14.1901C5.32173 13.5378 4.83963 12.789 4.53939 11.911H4.52729L4.53939 11.9019C4.34187 11.3221 4.32238 10.7066 4.3151 10.067H-0.147156Z" fill="url(#paint0_radial_146_1978)"/>
</g>
<g filter="url(#filter1_f_146_1978)">
<path d="M10.2132 -0.0727539C9.75185 1.54791 9.92824 3.12324 10.2132 4.03984C10.7459 4.04024 11.2591 4.10374 11.7456 4.23024C12.8612 4.52026 13.6502 5.09145 14.1337 5.54325L17.1258 2.61316C15.3532 0.987939 13.2201 -0.0701933 10.2132 -0.0727539Z" fill="url(#paint1_radial_146_1978)"/>
</g>
<g filter="url(#filter2_f_146_1978)">
<path d="M10.2031 -0.0855713C7.94037 -0.0856202 5.8513 0.619392 4.13937 1.81089C3.50373 2.25329 2.92042 2.76434 2.40101 3.33264C2.26494 4.60919 3.41961 6.1782 5.70622 6.16521C6.81566 4.87467 8.45651 4.0397 10.2828 4.0397C10.2844 4.0397 10.2861 4.03983 10.2877 4.03984L10.2131 -0.0852793C10.2098 -0.0852814 10.2065 -0.0855713 10.2031 -0.0855713Z" fill="url(#paint2_radial_146_1978)"/>
</g>
<g filter="url(#filter3_f_146_1978)">
<path d="M17.6715 10.5288L15.6518 11.9163C15.5632 12.4604 15.3641 12.9957 15.0726 13.4837C14.7387 14.0429 14.326 14.4687 13.9029 14.7929C12.6381 15.7621 11.1645 15.9616 10.1385 15.9624C9.07818 17.7684 8.89228 18.673 10.2131 20.1306C11.8475 20.1294 13.2965 19.8344 14.5746 19.2819C15.4985 18.8825 16.317 18.3616 17.0582 17.6921C18.0374 16.8075 18.8044 15.7133 19.3279 14.4545C19.8514 13.1956 20.1313 11.7721 20.1313 10.2288L17.6715 10.5288Z" fill="url(#paint3_radial_146_1978)"/>
</g>
<g filter="url(#filter4_f_146_1978)">
<path d="M10.0639 7.99866V12.1355H19.7811C19.8665 11.5689 20.1492 10.8358 20.1492 10.2289C20.1492 9.51962 20.078 8.65331 19.9572 7.99866H10.0639Z" fill="#3086FF"/>
</g>
<g filter="url(#filter5_f_146_1978)">
<path d="M2.44738 3.18652C1.84773 3.84262 1.33545 4.57698 0.92927 5.37117C0.232419 6.72943 -0.149139 8.38069 -0.149139 9.99907C-0.149139 10.0219 -0.147252 10.0442 -0.1471 10.067C0.161514 10.6587 4.11584 10.5454 4.31515 10.067C4.3149 10.0446 4.31239 10.0229 4.31239 10.0005C4.31239 9.33671 4.42453 8.84745 4.62894 8.24734C4.8811 7.50711 5.27593 6.82546 5.78081 6.23817C5.89526 6.09205 6.20055 5.77793 6.28961 5.58951C6.32354 5.51774 6.22802 5.47746 6.22267 5.4522C6.2167 5.42395 6.08862 5.44667 6.05993 5.42562C5.96883 5.3588 5.78843 5.3239 5.67888 5.29289C5.44474 5.22659 5.05669 5.08038 4.84116 4.92883C4.15987 4.44976 3.09666 3.87752 2.44738 3.18652Z" fill="url(#paint4_radial_146_1978)"/>
</g>
<g filter="url(#filter6_f_146_1978)">
<path d="M4.85582 5.45513C6.43566 6.41212 6.88999 4.97208 7.94036 4.52146L6.11321 0.732422C5.44108 1.01492 4.80605 1.36589 4.21684 1.77597C3.33691 2.3884 2.55986 3.13574 1.91797 3.98622L4.85582 5.45513Z" fill="url(#paint5_radial_146_1978)"/>
</g>
<g filter="url(#filter7_f_146_1978)">
<path d="M5.49877 15.1223C3.37804 15.8879 3.04603 15.9153 2.85081 17.2296C3.22386 17.5937 3.62466 17.9304 4.05058 18.2357C5.19345 19.0549 7.39183 20.146 10.2034 20.146C10.2067 20.146 10.2098 20.1457 10.2131 20.1457V15.8895C10.211 15.8895 10.2086 15.8897 10.2064 15.8897C9.1536 15.8897 8.31229 15.6131 7.44969 15.1323C7.23701 15.0137 6.85115 15.3321 6.655 15.1897C6.38447 14.9934 5.73341 15.3589 5.49877 15.1223Z" fill="url(#paint6_radial_146_1978)"/>
</g>
<g opacity="0.5" filter="url(#filter8_f_146_1978)">
<path d="M8.97112 15.7554V20.0719C9.3645 20.118 9.77389 20.1459 10.2034 20.1459C10.6339 20.1459 11.0504 20.1238 11.4551 20.0832V15.7845C11.0016 15.862 10.5744 15.8896 10.2064 15.8896C9.78261 15.8896 9.37046 15.8402 8.97112 15.7554Z" fill="url(#paint7_linear_146_1978)"/>
</g>
</g>
</g>
<defs>
<filter id="filter0_f_146_1978" x="-0.181483" y="10.0327" width="7.83513" height="7.11968" filterUnits="userSpaceOnUse" color-interpolation-filters="sRGB">
<feFlood flood-opacity="0" result="BackgroundImageFix"/>
<feBlend mode="normal" in="SourceGraphic" in2="BackgroundImageFix" result="shape"/>
<feGaussianBlur stdDeviation="0.0171635" result="effect1_foregroundBlur_146_1978"/>
</filter>
<filter id="filter1_f_146_1978" x="9.89519" y="-0.107081" width="7.26491" height="5.68462" filterUnits="userSpaceOnUse" color-interpolation-filters="sRGB">
<feFlood flood-opacity="0" result="BackgroundImageFix"/>
<feBlend mode="normal" in="SourceGraphic" in2="BackgroundImageFix" result="shape"/>
<feGaussianBlur stdDeviation="0.0171635" result="effect1_foregroundBlur_146_1978"/>
</filter>
<filter id="filter2_f_146_1978" x="2.3559" y="-0.119898" width="7.96616" height="6.31951" filterUnits="userSpaceOnUse" color-interpolation-filters="sRGB">
<feFlood flood-opacity="0" result="BackgroundImageFix"/>
<feBlend mode="normal" in="SourceGraphic" in2="BackgroundImageFix" result="shape"/>
<feGaussianBlur stdDeviation="0.0171635" result="effect1_foregroundBlur_146_1978"/>
</filter>
<filter id="filter3_f_146_1978" x="9.24807" y="10.1944" width="10.9175" height="9.97051" filterUnits="userSpaceOnUse" color-interpolation-filters="sRGB">
<feFlood flood-opacity="0" result="BackgroundImageFix"/>
<feBlend mode="normal" in="SourceGraphic" in2="BackgroundImageFix" result="shape"/>
<feGaussianBlur stdDeviation="0.0171635" result="effect1_foregroundBlur_146_1978"/>
</filter>
<filter id="filter4_f_146_1978" x="10.0296" y="7.96433" width="10.1539" height="4.20549" filterUnits="userSpaceOnUse" color-interpolation-filters="sRGB">
<feFlood flood-opacity="0" result="BackgroundImageFix"/>
<feBlend mode="normal" in="SourceGraphic" in2="BackgroundImageFix" result="shape"/>
<feGaussianBlur stdDeviation="0.0171635" result="effect1_foregroundBlur_146_1978"/>
</filter>
<filter id="filter5_f_146_1978" x="-0.183466" y="3.1522" width="6.51467" height="7.35149" filterUnits="userSpaceOnUse" color-interpolation-filters="sRGB">
<feFlood flood-opacity="0" result="BackgroundImageFix"/>
<feBlend mode="normal" in="SourceGraphic" in2="BackgroundImageFix" result="shape"/>
<feGaussianBlur stdDeviation="0.0171635" result="effect1_foregroundBlur_146_1978"/>
</filter>
<filter id="filter6_f_146_1978" x="1.67664" y="0.491089" width="6.50507" height="5.52698" filterUnits="userSpaceOnUse" color-interpolation-filters="sRGB">
<feFlood flood-opacity="0" result="BackgroundImageFix"/>
<feBlend mode="normal" in="SourceGraphic" in2="BackgroundImageFix" result="shape"/>
<feGaussianBlur stdDeviation="0.120667" result="effect1_foregroundBlur_146_1978"/>
</filter>
<filter id="filter7_f_146_1978" x="2.81649" y="15.0709" width="7.43096" height="5.10943" filterUnits="userSpaceOnUse" color-interpolation-filters="sRGB">
<feFlood flood-opacity="0" result="BackgroundImageFix"/>
<feBlend mode="normal" in="SourceGraphic" in2="BackgroundImageFix" result="shape"/>
<feGaussianBlur stdDeviation="0.0171635" result="effect1_foregroundBlur_146_1978"/>
</filter>
<filter id="filter8_f_146_1978" x="8.93679" y="15.721" width="2.55266" height="4.45916" filterUnits="userSpaceOnUse" color-interpolation-filters="sRGB">
<feFlood flood-opacity="0" result="BackgroundImageFix"/>
<feBlend mode="normal" in="SourceGraphic" in2="BackgroundImageFix" result="shape"/>
<feGaussianBlur stdDeviation="0.0171635" result="effect1_foregroundBlur_146_1978"/>
</filter>
<radialGradient id="paint0_radial_146_1978" cx="0" cy="0" r="1" gradientUnits="userSpaceOnUse" gradientTransform="translate(7.5259 16.9679) rotate(-92.3894) scale(9.96859 14.9545)">
<stop offset="0.141612" stop-color="#1ABD4D"/>
<stop offset="0.247515" stop-color="#6EC30D"/>
<stop offset="0.311547" stop-color="#8AC502"/>
<stop offset="0.366013" stop-color="#A2C600"/>
<stop offset="0.445673" stop-color="#C8C903"/>
<stop offset="0.540305" stop-color="#EBCB03"/>
<stop offset="0.615636" stop-color="#F7CD07"/>
<stop offset="0.699345" stop-color="#FDCD04"/>
<stop offset="0.771242" stop-color="#FDCE05"/>
<stop offset="0.860566" stop-color="#FFCE0A"/>
</radialGradient>
<radialGradient id="paint1_radial_146_1978" cx="0" cy="0" r="1" gradientUnits="userSpaceOnUse" gradientTransform="translate(16.8459 5.33125) scale(7.05806 8.92439)">
<stop offset="0.408458" stop-color="#FB4E5A"/>
<stop offset="1" stop-color="#FF4540"/>
</radialGradient>
<radialGradient id="paint2_radial_146_1978" cx="0" cy="0" r="1" gradientUnits="userSpaceOnUse" gradientTransform="translate(12.9914 -1.37741) rotate(151.53) scale(11.2492 15.0924)">
<stop offset="0.231273" stop-color="#FF4541"/>
<stop offset="0.311547" stop-color="#FF4540"/>
<stop offset="0.457516" stop-color="#FF4640"/>
<stop offset="0.540305" stop-color="#FF473F"/>
<stop offset="0.699346" stop-color="#FF5138"/>
<stop offset="0.771242" stop-color="#FF5B33"/>
<stop offset="0.860566" stop-color="#FF6C29"/>
<stop offset="1" stop-color="#FF8C18"/>
</radialGradient>
<radialGradient id="paint3_radial_146_1978" cx="0" cy="0" r="1" gradientUnits="userSpaceOnUse" gradientTransform="translate(10.3601 18.8362) rotate(-128.041) scale(29.1028 10.7996)">
<stop offset="0.131546" stop-color="#0CBA65"/>
<stop offset="0.209784" stop-color="#0BB86D"/>
<stop offset="0.297297" stop-color="#09B479"/>
<stop offset="0.396257" stop-color="#08AD93"/>
<stop offset="0.477124" stop-color="#0AA6A9"/>
<stop offset="0.568425" stop-color="#0D9CC6"/>
<stop offset="0.667385" stop-color="#1893DD"/>
<stop offset="0.768727" stop-color="#258BF1"/>
<stop offset="0.858506" stop-color="#3086FF"/>
</radialGradient>
<radialGradient id="paint4_radial_146_1978" cx="0" cy="0" r="1" gradientUnits="userSpaceOnUse" gradientTransform="translate(9.33677 1.8033) rotate(96.7579) scale(10.7851 15.2222)">
<stop offset="0.366013" stop-color="#FF4E3A"/>
<stop offset="0.457516" stop-color="#FF8A1B"/>
<stop offset="0.540305" stop-color="#FFA312"/>
<stop offset="0.615636" stop-color="#FFB60C"/>
<stop offset="0.771242" stop-color="#FFCD0A"/>
<stop offset="0.860566" stop-color="#FECF0A"/>
<stop offset="0.915033" stop-color="#FECF08"/>
<stop offset="1" stop-color="#FDCD01"/>
</radialGradient>
<radialGradient id="paint5_radial_146_1978" cx="0" cy="0" r="1" gradientUnits="userSpaceOnUse" gradientTransform="translate(7.55207 1.6923) rotate(132.723) scale(5.4071 15.28)">
<stop offset="0.315904" stop-color="#FF4C3C"/>
<stop offset="0.603818" stop-color="#FF692C"/>
<stop offset="0.726837" stop-color="#FF7825"/>
<stop offset="0.884534" stop-color="#FF8D1B"/>
<stop offset="1" stop-color="#FF9F13"/>
</radialGradient>
<radialGradient id="paint6_radial_146_1978" cx="0" cy="0" r="1" gradientUnits="userSpaceOnUse" gradientTransform="translate(12.9914 21.3771) rotate(-151.53) scale(11.2492 15.0924)">
<stop offset="0.231273" stop-color="#0FBC5F"/>
<stop offset="0.311547" stop-color="#0FBC5F"/>
<stop offset="0.366013" stop-color="#0FBC5E"/>
<stop offset="0.457516" stop-color="#0FBC5D"/>
<stop offset="0.540305" stop-color="#12BC58"/>
<stop offset="0.699346" stop-color="#28BF3C"/>
<stop offset="0.771242" stop-color="#38C02B"/>
<stop offset="0.860566" stop-color="#52C218"/>
<stop offset="0.915033" stop-color="#67C30F"/>
<stop offset="1" stop-color="#86C504"/>
</radialGradient>
<linearGradient id="paint7_linear_146_1978" x1="8.97112" y1="17.9507" x2="11.4551" y2="17.9507" gradientUnits="userSpaceOnUse">
<stop stop-color="#0FBC5C"/>
<stop offset="1" stop-color="#0CBA65"/>
</linearGradient>
<clipPath id="clip0_146_1978">
<rect width="20" height="20" fill="white"/>
</clipPath>
</defs>
</svg>
