<svg width="76" height="76" viewBox="0 0 76 76" fill="none" xmlns="http://www.w3.org/2000/svg">
<g filter="url(#filter0_d_146_2127)">
<mask id="mask0_146_2127" style="mask-type:alpha" maskUnits="userSpaceOnUse" x="10" y="10" width="56" height="56">
<path d="M10 10H66V66H10V10Z" fill="#D9D9D9"/>
</mask>
<g mask="url(#mask0_146_2127)">
<path d="M54.3333 18.8334C55.1202 18.8334 55.8033 19.1052 56.3489 19.6508C56.8944 20.1963 57.1662 20.8795 57.1663 21.6664V31.0004C57.1662 31.7873 56.8944 32.4704 56.3489 33.016C55.8033 33.5615 55.1202 33.8334 54.3333 33.8334C53.5463 33.8334 52.8632 33.5615 52.3176 33.016C51.7721 32.4704 51.5003 31.7873 51.5002 31.0004V28.5267L43.3665 36.6088C44.0207 37.6349 44.5302 38.7194 44.8928 39.8617C45.2976 41.1369 45.5002 42.4614 45.5002 43.8334C45.5002 47.5412 44.2045 50.7022 41.6204 53.2865C39.036 55.8709 35.8742 57.1664 32.1663 57.1664C28.4585 57.1663 25.2974 55.8708 22.7131 53.2865C20.1289 50.7022 18.8333 47.5412 18.8333 43.8334C18.8333 40.1255 20.1289 36.9646 22.7131 34.3802C25.2974 31.7959 28.4585 30.5004 32.1663 30.5004C33.4983 30.5004 34.8107 30.6916 36.1008 31.0746C37.2633 31.4197 38.3444 31.9368 39.344 32.6224L47.468 24.5004H45.0002C44.2132 24.5004 43.5293 24.2286 42.9836 23.683C42.438 23.1374 42.1663 22.4534 42.1663 21.6664C42.1663 20.8796 42.4382 20.1963 42.9836 19.6508C43.5293 19.1051 44.2132 18.8334 45.0002 18.8334H54.3333ZM32.1663 36.1664C30.0436 36.1665 28.2459 36.9111 26.7454 38.4115C25.2447 39.9121 24.5002 41.7104 24.5002 43.8334C24.5002 45.9564 25.2447 47.7546 26.7454 49.2552C28.2459 50.7556 30.0436 51.5003 32.1663 51.5004C34.2892 51.5004 36.0875 50.7558 37.5881 49.2552C39.0888 47.7546 39.8333 45.9564 39.8333 43.8334C39.8333 41.7104 39.0888 39.9121 37.5881 38.4115C36.0875 36.911 34.2892 36.1664 32.1663 36.1664Z" fill="#FF6900" stroke="#D85900"/>
</g>
</g>
<defs>
<filter id="filter0_d_146_2127" x="18.3333" y="18.3334" width="39.3333" height="40.3334" filterUnits="userSpaceOnUse" color-interpolation-filters="sRGB">
<feFlood flood-opacity="0" result="BackgroundImageFix"/>
<feColorMatrix in="SourceAlpha" type="matrix" values="0 0 0 0 0 0 0 0 0 0 0 0 0 0 0 0 0 0 127 0" result="hardAlpha"/>
<feOffset dy="1"/>
<feComposite in2="hardAlpha" operator="out"/>
<feColorMatrix type="matrix" values="0 0 0 0 0.695413 0 0 0 0 0.286346 0 0 0 0 0 0 0 0 1 0"/>
<feBlend mode="normal" in2="BackgroundImageFix" result="effect1_dropShadow_146_2127"/>
<feBlend mode="normal" in="SourceGraphic" in2="effect1_dropShadow_146_2127" result="shape"/>
</filter>
</defs>
</svg>
