<svg width="76" height="76" viewBox="0 0 76 76" fill="none" xmlns="http://www.w3.org/2000/svg">
<path d="M34.9254 9.7971C41.7961 5.2721 51.0763 7.75873 54.764 15.1128C56.0917 17.7605 58.2394 19.9083 60.8871 21.2359C68.2412 24.9236 70.7279 34.2039 66.2029 41.0746C64.5737 43.5482 63.7876 46.4821 63.9616 49.4389C64.4451 57.6515 57.6515 64.4452 49.4388 63.9617C46.482 63.7877 43.5481 64.5738 41.0745 66.2029C34.2038 70.7279 24.9235 68.2413 21.2359 60.8872C19.9082 58.2395 17.7604 56.0918 15.1128 54.7641C7.75866 51.0764 5.27201 41.7962 9.79702 34.9255C11.4262 32.4519 12.2123 29.518 12.0382 26.5612C11.5548 18.3485 18.3484 11.5549 26.5611 12.0383C29.5179 12.2124 32.4518 11.4262 34.9254 9.7971Z" fill="#FF6900"/>
</svg>
