<svg width="40" height="40" viewBox="0 0 40 40" fill="none" xmlns="http://www.w3.org/2000/svg">
<path d="M20.0317 33.9224C18.1802 33.9224 16.4427 33.5714 14.8194 32.8694C13.196 32.1762 11.7701 31.2153 10.5416 29.9868C9.31312 28.7496 8.34788 27.3237 7.64589 25.7091C6.95267 24.0857 6.60606 22.3483 6.60606 20.4968C6.60606 18.6453 6.95267 16.9078 7.64589 15.2845C8.34788 13.6611 9.31312 12.2352 10.5416 11.0067C11.7701 9.77822 13.196 8.81737 14.8194 8.12415C16.4427 7.42216 18.1802 7.07116 20.0317 7.07116C21.8832 7.07116 23.6206 7.42216 25.244 8.12415C26.8673 8.81737 28.2933 9.77822 29.5217 11.0067C30.7502 12.2352 31.7111 13.6611 32.4043 15.2845C33.1063 16.9078 33.4573 18.6453 33.4573 20.4968C33.4573 22.3483 33.1063 24.0857 32.4043 25.7091C31.7111 27.3237 30.7502 28.7496 29.5217 29.9868C28.2933 31.2153 26.8673 32.1762 25.244 32.8694C23.6206 33.5714 21.8832 33.9224 20.0317 33.9224ZM20.0317 31.9217C21.032 31.9217 22.0236 31.7857 23.0064 31.5137C23.9979 31.2504 24.9281 30.8643 25.7968 30.3554C26.6655 29.8552 27.4377 29.2497 28.1134 28.539C27.6395 27.7843 26.9902 27.1438 26.1653 26.6173C25.3493 26.082 24.4147 25.6784 23.3618 25.4063C22.3175 25.1255 21.2075 24.9851 20.0317 24.9851C18.8383 24.9851 17.7151 25.1255 16.6621 25.4063C15.6091 25.6871 14.6746 26.0952 13.8585 26.6304C13.0512 27.1569 12.4107 27.7931 11.9368 28.539C12.6125 29.2497 13.3847 29.8552 14.2534 30.3554C15.1309 30.8643 16.061 31.2504 17.0438 31.5137C18.0266 31.7857 19.0226 31.9217 20.0317 31.9217ZM20.0317 22.7475C20.8741 22.7563 21.6331 22.5457 22.3088 22.1157C22.9932 21.677 23.5373 21.0803 23.9409 20.3257C24.3445 19.571 24.5464 18.7242 24.5464 17.7853C24.5464 16.8991 24.3445 16.0874 23.9409 15.3503C23.5373 14.6132 22.9932 14.0253 22.3088 13.5865C21.6243 13.139 20.8653 12.9153 20.0317 12.9153C19.1893 12.9153 18.4259 13.139 17.7414 13.5865C17.057 14.0253 16.5129 14.6132 16.1093 15.3503C15.7056 16.0874 15.5082 16.8991 15.517 17.7853C15.517 18.7242 15.7144 19.5666 16.1093 20.3125C16.5129 21.0584 17.0526 21.6507 17.7283 22.0894C18.4127 22.5194 19.1805 22.7388 20.0317 22.7475Z" fill="#A1A5AC"/>
</svg>
