<svg width="18" height="17" viewBox="0 0 18 17" fill="none" xmlns="http://www.w3.org/2000/svg">
<path d="M8.99219 16.4297C7.8776 16.4297 6.83333 16.2188 5.85938 15.7969C4.88542 15.3802 4.02865 14.8021 3.28906 14.0625C2.54948 13.3229 1.96875 12.4661 1.54688 11.4922C1.13021 10.5182 0.921875 9.47396 0.921875 8.35938C0.921875 7.24479 1.13021 6.20052 1.54688 5.22656C1.96875 4.2474 2.54948 3.39062 3.28906 2.65625C4.02865 1.91667 4.88542 1.33854 5.85938 0.921875C6.83333 0.5 7.8776 0.289062 8.99219 0.289062C10.1068 0.289062 11.151 0.5 12.125 0.921875C13.1042 1.33854 13.9635 1.91667 14.7031 2.65625C15.4427 3.39062 16.0208 4.2474 16.4375 5.22656C16.8594 6.20052 17.0703 7.24479 17.0703 8.35938C17.0703 9.47396 16.8594 10.5182 16.4375 11.4922C16.0208 12.4661 15.4427 13.3229 14.7031 14.0625C13.9635 14.8021 13.1042 15.3802 12.125 15.7969C11.151 16.2188 10.1068 16.4297 8.99219 16.4297ZM8.99219 12.3359C9.55469 12.3359 10.0495 12.2344 10.4766 12.0312C10.9089 11.8281 11.2422 11.5938 11.4766 11.3281C11.7161 11.0625 11.8359 10.8411 11.8359 10.6641C11.8359 10.5599 11.7943 10.4896 11.7109 10.4531C11.6328 10.4115 11.5495 10.4115 11.4609 10.4531C11.1641 10.6094 10.8255 10.763 10.4453 10.9141C10.0651 11.0599 9.58073 11.1328 8.99219 11.1328C8.39844 11.1328 7.91146 11.0599 7.53125 10.9141C7.15104 10.763 6.8125 10.6094 6.51562 10.4531C6.42708 10.4115 6.34115 10.4115 6.25781 10.4531C6.17448 10.4896 6.13281 10.5599 6.13281 10.6641C6.13281 10.8411 6.2526 11.0625 6.49219 11.3281C6.73177 11.5938 7.0651 11.8281 7.49219 12.0312C7.91927 12.2344 8.41927 12.3359 8.99219 12.3359ZM6.59375 7.60938C6.84896 7.60938 7.07292 7.50781 7.26562 7.30469C7.45833 7.09635 7.55469 6.83073 7.55469 6.50781C7.55469 6.17969 7.45833 5.91406 7.26562 5.71094C7.07292 5.5026 6.84896 5.39844 6.59375 5.39844C6.33854 5.39844 6.11719 5.5026 5.92969 5.71094C5.74219 5.91406 5.64844 6.17969 5.64844 6.50781C5.64844 6.83073 5.74219 7.09635 5.92969 7.30469C6.1224 7.50781 6.34375 7.60938 6.59375 7.60938ZM11.375 7.60938C11.6302 7.60938 11.8542 7.50781 12.0469 7.30469C12.2448 7.09635 12.3438 6.83073 12.3438 6.50781C12.3438 6.17969 12.2474 5.91406 12.0547 5.71094C11.862 5.5026 11.6354 5.39844 11.375 5.39844C11.1198 5.39844 10.8984 5.5026 10.7109 5.71094C10.5234 5.91406 10.4297 6.17969 10.4297 6.50781C10.4297 6.83073 10.5234 7.09635 10.7109 7.30469C10.9036 7.50781 11.125 7.60938 11.375 7.60938Z" fill="white"/>
</svg>
