<svg width="20" height="20" viewBox="0 0 20 20" fill="none" xmlns="http://www.w3.org/2000/svg">
<path d="M14.1667 17.7083H5.83334C2.79167 17.7083 1.04167 15.9583 1.04167 12.9166V7.08329C1.04167 4.04163 2.79167 2.29163 5.83334 2.29163H14.1667C17.2083 2.29163 18.9583 4.04163 18.9583 7.08329V12.9166C18.9583 15.9583 17.2083 17.7083 14.1667 17.7083ZM5.83334 3.54163C3.45001 3.54163 2.29167 4.69996 2.29167 7.08329V12.9166C2.29167 15.3 3.45001 16.4583 5.83334 16.4583H14.1667C16.55 16.4583 17.7083 15.3 17.7083 12.9166V7.08329C17.7083 4.69996 16.55 3.54163 14.1667 3.54163H5.83334Z" fill="black"/>
<path d="M9.99981 10.725C9.29981 10.725 8.59148 10.5083 8.04981 10.0666L5.44148 7.98331C5.17481 7.76664 5.12481 7.37497 5.34148 7.10831C5.55815 6.84164 5.94982 6.79164 6.21648 7.00831L8.82481 9.09164C9.45814 9.59998 10.5331 9.59998 11.1665 9.09164L13.7748 7.00831C14.0415 6.79164 14.4415 6.83331 14.6498 7.10831C14.8665 7.37497 14.8248 7.77498 14.5498 7.98331L11.9415 10.0666C11.4081 10.5083 10.6998 10.725 9.99981 10.725Z" fill="black"/>
</svg>
