<svg width="40" height="40" viewBox="0 0 40 40" fill="none" xmlns="http://www.w3.org/2000/svg">
<path d="M15.8767 7.42667C16.5458 7.2474 17.2199 7.22709 17.8592 7.34269C16.9909 8.09038 16.3304 9.09782 16.0115 10.288L12.0203 25.1825C11.1759 28.3347 13.0468 31.5752 16.199 32.4198L16.7498 32.5673L14.7136 33.1132C12.2888 33.7629 9.796 32.3242 9.14626 29.8993L5.15603 15.0048C4.50629 12.5799 5.94505 10.0871 8.3699 9.43741L15.8767 7.42667ZM13.2088 26.2099C13.2206 26.1048 13.2372 25.9997 13.2566 25.8944C13.237 25.9997 13.2206 26.1048 13.2088 26.2099ZM13.3377 25.5351C13.3093 25.6411 13.2852 25.7473 13.2644 25.8534C13.2703 25.8232 13.2755 25.7928 13.282 25.7626L13.3367 25.5351L17.3279 10.6405L13.3377 25.5351Z" fill="#A1A5AC"/>
<rect x="18.5049" y="6.25" width="16.8626" height="24.5109" rx="4.54545" transform="rotate(15 18.5049 6.25)" fill="#A1A5AC"/>
</svg>
