<svg width="328" height="50" viewBox="0 0 328 50" fill="none" xmlns="http://www.w3.org/2000/svg">
<path d="M12.4932 49V6.76H22.8612V49H12.4932ZM0.205244 15.336V6.76H35.2772V15.336H0.205244ZM42.0037 49L33.8117 15.208H44.5637L48.7237 40.936H50.0037L55.1877 15.208H67.4117L72.7877 40.936H74.1317L78.0997 15.208H88.6597L80.4677 49H66.2597L61.5877 23.528H60.3717L56.0197 49H42.0037ZM90.1867 49V15.208H100.491V49H90.1867ZM95.3707 10.472C93.4081 10.472 91.8934 10.0667 90.8267 9.256C89.8027 8.40266 89.2907 7.208 89.2907 5.672C89.2907 4.05066 89.8027 2.83466 90.8267 2.024C91.8934 1.17067 93.4081 0.743999 95.3707 0.743999C97.3761 0.743999 98.8907 1.17067 99.9147 2.024C100.981 2.83466 101.515 4.02933 101.515 5.608C101.515 7.18666 100.981 8.40266 99.9147 9.256C98.8907 10.0667 97.3761 10.472 95.3707 10.472ZM105.299 49V28.648V15.208H113.619L113.747 25.128H115.027C115.582 22.7387 116.371 20.7333 117.395 19.112C118.419 17.4907 119.721 16.296 121.299 15.528C122.878 14.7173 124.734 14.312 126.867 14.312C130.835 14.312 133.843 15.6987 135.891 18.472C137.982 21.2453 139.027 25.6613 139.027 31.72V49H128.659V32.872C128.659 29.3733 128.147 26.8347 127.123 25.256C126.142 23.6347 124.67 22.824 122.707 22.824C121.086 22.824 119.742 23.3147 118.675 24.296C117.651 25.2773 116.883 26.5787 116.371 28.2C115.859 29.8213 115.603 31.6347 115.603 33.64V49H105.299ZM143.672 49V6.76H153.976V49H143.672ZM148.728 33.96V25.576H173.496V33.96H148.728ZM148.728 15.528V6.76H175.8V15.528H148.728ZM178.462 49V15.208H188.766V49H178.462ZM183.646 10.472C181.683 10.472 180.168 10.0667 179.102 9.256C178.078 8.40266 177.566 7.208 177.566 5.672C177.566 4.05066 178.078 2.83466 179.102 2.024C180.168 1.17067 181.683 0.743999 183.646 0.743999C185.651 0.743999 187.166 1.17067 188.19 2.024C189.256 2.83466 189.79 4.02933 189.79 5.608C189.79 7.18666 189.256 8.40266 188.19 9.256C187.166 10.0667 185.651 10.472 183.646 10.472ZM193.574 49V28.648V15.208H201.894L202.022 25.128H203.302C203.857 22.7387 204.646 20.7333 205.67 19.112C206.694 17.4907 207.996 16.296 209.574 15.528C211.153 14.7173 213.009 14.312 215.142 14.312C219.11 14.312 222.118 15.6987 224.166 18.472C226.257 21.2453 227.302 25.6613 227.302 31.72V49H216.934V32.872C216.934 29.3733 216.422 26.8347 215.398 25.256C214.417 23.6347 212.945 22.824 210.982 22.824C209.361 22.824 208.017 23.3147 206.95 24.296C205.926 25.2773 205.158 26.5787 204.646 28.2C204.134 29.8213 203.878 31.6347 203.878 33.64V49H193.574ZM243.851 49.896C241.035 49.896 238.561 49.192 236.427 47.784C234.337 46.3333 232.694 44.2853 231.499 41.64C230.305 38.952 229.707 35.752 229.707 32.04C229.707 28.6267 230.219 25.5973 231.243 22.952C232.267 20.3067 233.782 18.2373 235.787 16.744C237.835 15.208 240.353 14.44 243.339 14.44C245.473 14.44 247.265 14.824 248.715 15.592C250.209 16.36 251.446 17.512 252.427 19.048C253.409 20.584 254.198 22.5253 254.795 24.872H256.395C256.097 23.4213 255.819 22.056 255.563 20.776C255.307 19.4533 255.094 18.2373 254.923 17.128C254.795 15.976 254.731 14.9733 254.731 14.12V2.92H265.099V32.488V49H256.651L256.523 39.016H255.115C254.646 41.576 253.899 43.6667 252.875 45.288C251.894 46.8667 250.635 48.04 249.099 48.808C247.606 49.5333 245.857 49.896 243.851 49.896ZM247.563 41.576C248.886 41.576 249.995 41.2987 250.891 40.744C251.83 40.1467 252.577 39.4 253.131 38.504C253.686 37.608 254.091 36.648 254.347 35.624C254.603 34.6 254.731 33.64 254.731 32.744V31.4C254.731 30.5893 254.625 29.7787 254.411 28.968C254.198 28.1573 253.878 27.368 253.451 26.6C253.067 25.832 252.577 25.1493 251.979 24.552C251.382 23.9547 250.678 23.4853 249.867 23.144C249.099 22.8027 248.246 22.632 247.307 22.632C245.899 22.632 244.683 23.016 243.659 23.784C242.678 24.552 241.91 25.64 241.355 27.048C240.843 28.456 240.587 30.12 240.587 32.04C240.587 33.96 240.865 35.6453 241.419 37.096C241.974 38.504 242.785 39.6133 243.851 40.424C244.918 41.192 246.155 41.576 247.563 41.576ZM285.926 49.896C283.11 49.896 280.592 49.5333 278.374 48.808C276.155 48.04 274.256 46.9307 272.678 45.48C271.142 44.0293 269.968 42.2373 269.158 40.104C268.347 37.9707 267.942 35.5173 267.942 32.744C267.942 30.056 268.326 27.5813 269.094 25.32C269.904 23.0587 271.035 21.1173 272.486 19.496C273.979 17.832 275.792 16.552 277.926 15.656C280.102 14.76 282.534 14.312 285.222 14.312C287.952 14.312 290.342 14.76 292.39 15.656C294.48 16.5093 296.187 17.7893 297.51 19.496C298.875 21.2027 299.878 23.2933 300.518 25.768C301.158 28.2 301.371 30.9947 301.158 34.152L274.726 34.344V28.968L295.27 28.776L291.622 31.272C291.92 29.1387 291.792 27.4107 291.238 26.088C290.683 24.7227 289.872 23.7413 288.806 23.144C287.739 22.504 286.587 22.184 285.35 22.184C283.856 22.184 282.534 22.5893 281.382 23.4C280.272 24.2107 279.398 25.384 278.758 26.92C278.118 28.456 277.798 30.3333 277.798 32.552C277.798 36.0507 278.544 38.5893 280.038 40.168C281.574 41.7467 283.515 42.536 285.862 42.536C287.014 42.536 287.974 42.3867 288.742 42.088C289.51 41.7467 290.128 41.3413 290.598 40.872C291.11 40.36 291.494 39.8053 291.75 39.208C292.048 38.6107 292.283 38.0347 292.454 37.48L301.414 39.4C301.072 40.9787 300.518 42.408 299.75 43.688C299.024 44.968 298.022 46.0773 296.742 47.016C295.504 47.9547 293.99 48.6587 292.198 49.128C290.448 49.64 288.358 49.896 285.926 49.896ZM304.224 49V33.32V15.208H312.672L312.864 26.664H314.144C314.443 23.6773 314.998 21.3093 315.808 19.56C316.662 17.768 317.856 16.4667 319.392 15.656C320.971 14.8453 322.912 14.44 325.216 14.44C325.558 14.44 325.942 14.4613 326.368 14.504C326.795 14.504 327.286 14.5467 327.84 14.632L327.456 25.64C326.774 25.2987 326.027 25.0853 325.216 25C324.448 24.872 323.766 24.808 323.168 24.808C321.504 24.808 320.054 25.128 318.816 25.768C317.622 26.408 316.662 27.3893 315.936 28.712C315.254 30.0347 314.806 31.6987 314.592 33.704V49H304.224Z" fill="white"/>
</svg>
